<svg xmlns="http://www.w3.org/2000/svg" width="64" height="64" version="1">
 <rect style="opacity:0.2" width="40" height="40" x="4" y="5" rx="12" ry="12"/>
 <path style="fill:#a89984" d="M 23.737063,6.2027972 43.2,4 C 52.5072,4 60,11.4928 60,20.8 V 43.2 C 60,52.5072 52.5072,60 43.2,60 L 20.922377,58.041954 C 11.65092,57.227065 6.0115186,51.528026 5.9580422,42.22098 L 5.8356643,20.922377 C 5.7821877,11.615331 14.488906,7.2494949 23.737063,6.2027972 Z"/>
 <path style="fill:#d5c4a1" d="M 20.8,4 C 11.4928,4 4,11.4928 4,20.8 V 32 H 7.5 C 24.681196,31.984844 39.772828,20.587185 44.487891,4.065625 44.061501,4.0334852 43.63489,4 43.2,4 Z"/>
 <path style="fill:#fbf1c7" d="M 7.5,32 H 4 V 43.2 C 4,52.5072 11.4928,60 20.8,60 h 22.4 c 0.441339,0 0.874457,-0.03254 1.307032,-0.0656 C 39.790023,43.406002 24.688296,32.006619 7.5,32 Z"/>
 <rect style="fill:none;stroke:#282828;stroke-width:4;stroke-linecap:round;stroke-linejoin:round" width="38" height="38" x="13" y="13" rx="9.852" ry="9.852"/>
 <circle style="fill:none;stroke:#282828;stroke-width:4;stroke-linecap:round;stroke-linejoin:round" cx="32" cy="32" r="9"/>
 <circle style="fill:#282828" cx="43" cy="21" r="3"/>
 <path style="opacity:0.1;fill:#282828" d="M 20.800781 4 C 11.493582 4 4 11.493582 4 20.800781 L 4 21.800781 C 4 12.493582 11.493582 5 20.800781 5 L 43.199219 5 C 52.506418 5 60 12.493582 60 21.800781 L 60 20.800781 C 60 11.493582 52.506418 4 43.199219 4 L 20.800781 4 z"/>
</svg>
