<?xml version="1.0" encoding="UTF-8" standalone="no"?>
<svg
   xmlns:dc="http://purl.org/dc/elements/1.1/"
   xmlns:cc="http://creativecommons.org/ns#"
   xmlns:rdf="http://www.w3.org/1999/02/22-rdf-syntax-ns#"
   xmlns:svg="http://www.w3.org/2000/svg"
   xmlns="http://www.w3.org/2000/svg"
   xmlns:sodipodi="http://sodipodi.sourceforge.net/DTD/sodipodi-0.dtd"
   xmlns:inkscape="http://www.inkscape.org/namespaces/inkscape"
   height="16"
   width="16"
   version="1"
   id="svg10"
   sodipodi:docname="firefox.svg"
   inkscape:version="0.92.2 5c3e80d, 2017-08-06">
  <metadata
     id="metadata16">
    <rdf:RDF>
      <cc:Work
         rdf:about="">
        <dc:format>image/svg+xml</dc:format>
        <dc:type
           rdf:resource="http://purl.org/dc/dcmitype/StillImage" />
      </cc:Work>
    </rdf:RDF>
  </metadata>
  <defs
     id="defs14" />
  <sodipodi:namedview
     pagecolor="#ffffff"
     bordercolor="#666666"
     borderopacity="1"
     objecttolerance="10"
     gridtolerance="10"
     guidetolerance="10"
     inkscape:pageopacity="0"
     inkscape:pageshadow="2"
     inkscape:window-width="870"
     inkscape:window-height="1016"
     id="namedview12"
     showgrid="false"
     inkscape:zoom="14.75"
     inkscape:cx="8"
     inkscape:cy="8"
     inkscape:window-x="970"
     inkscape:window-y="64"
     inkscape:window-maximized="0"
     inkscape:current-layer="svg10" />
  <path
     fill="#ebdbb2"
     d="m9.2824 15.884c3.8066-0.636 6.7176-4.042 6.7176-8.1591l-0.07299 0.093609c0.114-0.7825 0.094-1.4797-0.062-2.0879-0.05599 0.45049-0.11698 0.72251-0.17848 0.83169-0.000381-0.035153-0.009-0.50479-0.15349-1.1601-0.06849-0.47789-0.16898-0.92736-0.30796-1.3426 0.03398 0.19033 0.05399 0.3491 0.06399 0.49289-0.581-1.6127-2.012-3.5982-5.5358-3.5517 0 0 1.2393 0.13551 1.8228 1.0494 0 0-0.59641-0.14741-1.0473 0.078615 0.54943 0.22653 1.0259 0.46341 1.4313 0.71062l0.03497 0.022225c0.10399 0.064655 0.19248 0.13085 0.28646 0.19654 0.74893 0.54412 1.4438 1.3204 1.3908 2.3217-0.16148-0.26378-0.37646-0.43652-0.65193-0.52341 0.33946 1.3758 0.37296 2.512 0.09849 3.4083-0.18848-0.59683-0.36196-0.95474-0.51644-1.081 0.21547 1.8443-0.07499 3.2082-0.8694 4.0973 0.15098-0.54256 0.21097-0.98683 0.17698-1.3375-0.933 1.4595-1.9953 2.2145-3.1857 2.2605-0.4704-0.004-0.9149-0.077-1.3329-0.22-0.6139-0.215-1.1693-0.581-1.6638-1.102 0.77191 0.06672 1.4768-0.07189 2.0973-0.39928l1.0164-0.68892-0.00384-0.0031c0.1319-0.0516 0.2559-0.0475 0.3769 0.0109 0.2479-0.0351 0.3349-0.1727 0.2519-0.4049-0.12-0.1728-0.3014-0.3295-0.5344-0.4676-0.5085-0.2746-1.0394-0.2312-1.5933 0.1345-0.5275 0.3103-1.0349 0.2979-1.5289-0.032-0.3234-0.2312-0.6359-0.5426-0.9378-0.9315l-0.1208-0.1832c-0.05649 0.44066 0.0075 1.006 0.19897 1.7021l0.004 0.00934-0.004-0.00827c-0.1921-0.6965-0.2556-1.2633-0.1991-1.7031v-0.00445c0.0145-0.3847 0.1685-0.5968 0.4619-0.6444l-0.12449-0.010875 0.12548 0.010875c0.33146 0.031564 0.71192 0.11017 1.1409 0.23947 0.071997-0.42824-0.022509-0.87663-0.28196-1.3364v-0.00827c0.403-0.389 0.7604-0.6719 1.0659-0.8524 0.1355-0.075 0.2145-0.1888 0.2405-0.3424l0.010969-0.00828 0.00384-0.00398 0.014969-0.015011c0.0789-0.122 0.0524-0.2203-0.0825-0.3071-0.2825 0.016-0.5655-0.004-0.8475-0.0626l-0.00384 0.011901c-0.1168-0.0356-0.264-0.1426-0.4448-0.3236l-0.4634-0.4717-0.139-0.1133v0.015014h-0.004l0.004-0.019152-0.0265-0.0285 0.0375-0.0274c0.0634-0.3574 0.169-0.6646 0.3194-0.9283l0.034012-0.031564c0.1509-0.2597 0.4405-0.5385 0.8661-0.8364-0.7909 0.1019-1.5065 0.4707-2.1423 1.1084-0.5275-0.2002-1.1523-0.1577-1.8718 0.1293l-0.086492 0.068276-0.00651 0.00394 0.093989-0.071372 0.004-0.00394c-0.4525-0.2152-0.7575-0.8332-0.9044-1.8433-0.576 0.5901-0.85492 1.6437-0.83642 3.1648l-0.16498 0.25808-0.042494 0.030029-0.008494 0.00828-0.003429 0.00396-0.007999 0.017065c-0.08751 0.1417-0.20798 0.3558-0.35996 0.6436-0.21848 0.4061-0.29197 0.7479-0.31346 1.0452l-0.0019038 0.00397 0.0011412 0.00981-0.0070074 0.0781 0.012494-0.0207c0.0015252 0.068791 0.003045 0.13809 0.019998 0.20016l0.46695-0.3973c-0.16948 0.4443-0.28197 0.9155-0.33896 1.4151l-0.01349 0.2286-0.14648-0.1733c0 1.773 0.54394 3.412 1.4618 4.7587l0.027502 0.04447 0.043996 0.05429c0.65993 0.9377 1.5028 1.7264 2.4787 2.3088 0.70141 0.42979 1.4553 0.73081 2.2592 0.90974l0.16548 0.0383c0.16648 0.0331 0.33696 0.05792 0.50794 0.08017 0.12649 0.01707 0.25297 0.03361 0.38096 0.04502l0.16998 0.02017 0.24147 0.0016 0.2624 0.013 0.209-0.011 0.3445-0.017c0.2044-0.015 0.4059-0.038 0.6059-0.068l0.12149-0.0186zm-4.704-8.6632zm9.7621-1.4176-0.0038 0.067751 0.0027-0.06827 0.0011 0.0003943z"
     id="path8" />
</svg>
